<svg width="20" height="15" viewBox="0 0 20 15" fill="none" xmlns="http://www.w3.org/2000/svg">
<path d="M2.7691 14.2857H17.2225C18.1399 14.2857 18.8321 14.0619 19.2993 13.6144C19.7664 13.1669 20 12.5038 20 11.6251V7.04871C20 6.74853 19.9803 6.49475 19.9409 6.28735C19.9071 6.07996 19.848 5.89439 19.7636 5.73066C19.6848 5.56693 19.5751 5.39228 19.4344 5.20671L16.6568 1.61277C16.3304 1.18707 16.0349 0.859599 15.7704 0.630373C15.5058 0.395688 15.2104 0.231955 14.8839 0.139173C14.5575 0.0463911 14.141 0 13.6344 0H6.36555C5.85338 0 5.43408 0.0463911 5.10764 0.139173C4.78683 0.231955 4.49416 0.395688 4.22963 0.630373C3.9651 0.859599 3.66962 1.18707 3.34318 1.61277L0.565639 5.20671C0.424933 5.39228 0.312368 5.56693 0.227944 5.73066C0.14352 5.89439 0.0844238 6.07996 0.0506543 6.28735C0.0168848 6.49475 0 6.74853 0 7.04871V11.6251C0 12.5038 0.233573 13.1669 0.700718 13.6144C1.16786 14.0619 1.85732 14.2857 2.7691 14.2857ZM9.99578 9.27548C9.57366 9.27548 9.20501 9.17997 8.88983 8.98895C8.58027 8.79247 8.34107 8.54141 8.17222 8.23578C8.00338 7.92468 7.91895 7.59722 7.91895 7.25338V7.19607C7.91895 7.01051 7.85986 6.84404 7.74166 6.69668C7.62347 6.54387 7.44337 6.46746 7.20135 6.46746H2.09371C1.94175 6.46746 1.84888 6.41834 1.81511 6.3201C1.78134 6.22186 1.80386 6.12089 1.88265 6.01719L4.95568 2.00573C5.14141 1.76559 5.34684 1.5964 5.57197 1.49816C5.80273 1.39446 6.05882 1.34261 6.34023 1.34261H13.6513C13.944 1.34261 14.2029 1.39446 14.428 1.49816C14.6532 1.5964 14.8558 1.76559 15.0359 2.00573L18.1173 6.01719C18.1849 6.12089 18.2018 6.22186 18.168 6.3201C18.1399 6.41834 18.0498 6.46746 17.8978 6.46746H12.7986C12.5566 6.46746 12.3765 6.54387 12.2583 6.69668C12.1458 6.84404 12.0895 7.01051 12.0895 7.19607V7.25338C12.0895 7.59722 12.0023 7.92468 11.8278 8.23578C11.6589 8.54141 11.4169 8.79247 11.1017 8.98895C10.7922 9.17997 10.4235 9.27548 9.99578 9.27548Z" fill="white"/>
</svg>
