<svg width="18" height="18" viewBox="0 0 18 18" fill="none" xmlns="http://www.w3.org/2000/svg">
<path d="M10.7337 18C11.0623 18 11.3428 17.8754 11.5751 17.6261C11.8074 17.3824 12.0028 17.0567 12.1615 16.6487L17.762 1.98867C17.8357 1.79603 17.8923 1.61756 17.932 1.45326C17.9717 1.28895 17.9915 1.13314 17.9915 0.985836C17.9915 0.685552 17.9037 0.447592 17.728 0.271955C17.5524 0.0906516 17.3144 0 17.0142 0C16.8725 0 16.7167 0.0226629 16.5467 0.0679887C16.3768 0.107649 16.1955 0.161473 16.0028 0.229462L1.29178 5.86402C0.923513 6.00567 0.614731 6.19263 0.365439 6.42493C0.121813 6.65722 0 6.93768 0 7.26629C0 7.66856 0.135977 7.96601 0.407932 8.15864C0.679887 8.34561 1.02266 8.50142 1.43626 8.62606L5.84702 9.97734C6.14164 10.068 6.3881 10.1048 6.5864 10.0878C6.7847 10.0652 6.98867 9.95751 7.1983 9.76487L16.6572 0.994334C16.7139 0.943343 16.7734 0.917847 16.8357 0.917847C16.9037 0.917847 16.9632 0.94051 17.0142 0.985836C17.0595 1.03116 17.0821 1.08782 17.0821 1.15581C17.0821 1.21813 17.0538 1.27762 16.9972 1.33428L8.26062 10.8187C8.07932 11.0113 7.9745 11.2096 7.94617 11.4136C7.92351 11.6176 7.95467 11.8697 8.03966 12.17L9.34844 16.4873C9.47875 16.9235 9.64022 17.2833 9.83286 17.5666C10.0255 17.8555 10.3258 18 10.7337 18Z" fill="white"/>
</svg>
