<svg width="16" height="18" viewBox="0 0 16 18" fill="none" xmlns="http://www.w3.org/2000/svg">
<path fill-rule="evenodd" clip-rule="evenodd" d="M0.307831 5.80419C0 6.47348 0 7.23489 0 8.75773V13.5137C0 15.6285 0 16.686 0.657007 17.343C1.26684 17.9528 2.22167 17.9966 4.04689 17.9998C4.04688 17.9982 4.04688 17.9967 4.04688 17.9951V12.3872C4.04688 11.2155 4.99674 10.2656 6.16846 10.2656H9.5332C10.7049 10.2656 11.6548 11.2155 11.6548 12.3872V17.9951C11.6548 17.9967 11.6548 17.9982 11.6548 17.9998C13.4803 17.9966 14.4352 17.9529 15.0451 17.343C15.7021 16.686 15.7021 15.6285 15.7021 13.5137V8.75773C15.7021 7.23489 15.7021 6.47348 15.3943 5.80419C15.0865 5.13489 14.5084 4.63937 13.3521 3.64832L12.2306 2.68697C10.1407 0.895655 9.09577 0 7.85107 0C6.60637 0 5.56144 0.895655 3.47158 2.68696L3.47158 2.68697L2.35 3.64832C1.19377 4.63937 0.615662 5.13489 0.307831 5.80419ZM9.65479 18C9.65479 17.9984 9.65478 17.9967 9.65478 17.9951V12.3872C9.65478 12.3201 9.60035 12.2656 9.5332 12.2656H6.16846C6.10131 12.2656 6.04688 12.3201 6.04688 12.3872V17.9951C6.04688 17.9967 6.04687 17.9984 6.04686 18H9.65479Z" fill="white"/>
</svg>
